<?xml version="1.0" encoding="utf-8"?>
<!-- Generator: Adobe Illustrator 16.0.0, SVG Export Plug-In . SVG Version: 6.00 Build 0)  -->
<!DOCTYPE svg PUBLIC "-//W3C//DTD SVG 1.1//EN" "http://www.w3.org/Graphics/SVG/1.1/DTD/svg11.dtd">
<svg version="1.1" id="Layer_1" xmlns="http://www.w3.org/2000/svg" xmlns:xlink="http://www.w3.org/1999/xlink" x="0px" y="0px"
	 width="140.789px" height="161.842px" viewBox="0 0 140.789 161.842" enable-background="new 0 0 140.789 161.842"
	 xml:space="preserve">
<g>
	<g>
		<g>
			<path fill-rule="evenodd" clip-rule="evenodd" fill="#FFFFFF" d="M60.698,145.207c1.762-1.187,3.467-3.059,5.126-4.982
				c1.636-1.895,3.142-3.909,4.976-5.627c2.703-2.531,5.98-4.033,9.491-5.063c4.65-1.363,9.42-1.595,14.221-1.369
				c6.64,0.313,13.235,1.07,19.815,1.989c2.461,0.345,4.931,0.571,7.405,0.136c1.7-0.3,3.229-0.944,4.332-2.342
				c1.042-1.32,1.033-2.568,0.003-3.898c-0.973-1.26-2.233-2.182-3.57-3.01c-1.626-1.007-3.325-1.861-5.117-2.539
				c-5.608-2.123-10.17-5.648-13.823-10.375c-3.553-4.594-6.042-9.729-7.607-15.295c-1.203-4.275-1.154-8.672-0.853-13.061
				c0.473-6.88,1.753-13.623,3.545-20.273c1.821-6.744,3.533-13.517,5.481-20.228c1.075-3.697,2.301-7.344,3.492-11.004
				c0.778-2.391,1.393-4.822,1.43-7.361c0.013-0.802-0.067-1.595-0.314-2.36c-0.429-1.319-1.289-2.178-2.667-2.506
				c-2.557-0.607-4.732,0.084-6.563,1.923c-1.677,1.684-2.822,3.727-3.666,5.912c-2.912,7.526-6.414,14.788-9.819,22.092
				c-2.689,5.763-5.671,11.358-9.32,16.578c-3.621,5.18-7.724,9.936-12.606,13.975c-2.066,1.713-4.259,3.198-6.861,4.08
				c-1.658,0.563-3.177,1.544-4.843,2.144c-4.766,1.714-9.622,2.161-14.633,1.284c-3.341-0.586-6.712-0.987-10.079-1.41
				c-1.323-0.165-2.528-0.676-3.793-1.011c-1.798-0.48-3.603-0.853-5.479-0.735c-0.718,0.044-1.411,0.195-2.074,0.472
				c-1.384,0.581-1.935,1.587-1.658,3.064c0.33,1.753,1.354,3.119,2.512,4.397c1.452,1.605,3.213,2.851,4.896,4.19
				c2.99,2.38,5.928,4.821,8.892,7.228c3.031,2.458,6.035,4.949,8.79,7.719c3.362,3.377,6.297,7.072,8.278,11.441
				c2.236,4.928,2.879,10.098,2.28,15.451c-0.233,2.102-0.465,4.215-0.12,6.323c0.212,1.272,0.45,2.563,1.256,3.64
				c1.276,1.699,3.058,2.189,5.069,2.053C57.921,146.753,59.164,146.196,60.698,145.207z"/>
		</g>
	</g>
	<path fill-rule="evenodd" clip-rule="evenodd" fill="#222223" d="M105.66,121.917c4.59,1.545,9.573,1.615,14.031,3.681
		c0.29,1.009-0.122,1.878-1.106,1.681c-1.895-0.377-3.729-1.09-5.576-1.697c-0.961-0.316-1.881-0.931-2.854-1.024
		c-14.517-1.425-27.9-6.855-41.463-11.651c-1.189-0.421-2.307-1.039-3.44-1.6c-0.411-0.203-1.141-0.104-1.045-0.813
		c0.017-0.104,1.098-0.315,1.37-0.092c2.659,2.196,6.324,1.82,9.104,3.631c2.475,1.607,5.401,1.825,8.126,2.559
		c5.041,1.357,10.239,2.104,15.266,3.58c0.963,0.283,1.992,0.333,2.988,0.49c1.287,0.371,2.572,0.741,3.86,1.112
		C105.167,121.822,105.414,121.871,105.66,121.917z"/>
</g>
</svg>
